<svg width="20" height="20" viewBox="0 0 20 20" fill="none" xmlns="http://www.w3.org/2000/svg">
<path d="M13.75 7.8125V17.1875C13.7488 17.6015 13.5837 17.9982 13.291 18.291C12.9982 18.5837 12.6015 18.7488 12.1875 18.75H5.3125C4.89848 18.7488 4.50177 18.5837 4.20901 18.291C3.91625 17.9982 3.75124 17.6015 3.75 17.1875V8.75" stroke="#1E1E1E" stroke-width="2" stroke-linecap="round" stroke-linejoin="round"/>
<path d="M13.75 8.75H15.3125C15.8922 8.75165 16.4476 8.98265 16.8575 9.39253C17.2674 9.8024 17.4984 10.3578 17.5 10.9375V14.0625C17.4984 14.6422 17.2674 15.1976 16.8575 15.6075C16.4476 16.0174 15.8922 16.2484 15.3125 16.25H13.75" stroke="#1E1E1E" stroke-width="2" stroke-miterlimit="10" stroke-linecap="round"/>
<path d="M8.75 10V16.25M11.25 10V16.25M6.25 10V16.25M12.5 4.375C12.9973 4.375 13.4742 4.57254 13.8258 4.92417C14.1775 5.27581 14.375 5.75272 14.375 6.25C14.375 6.74728 14.1775 7.22419 13.8258 7.57583C13.4742 7.92746 12.9973 8.125 12.5 8.125C11.9824 8.125 11.3551 7.83945 11.0156 7.5H6.25C5.9375 8.35938 5.19531 8.75 4.375 8.75C3.87772 8.75 3.40081 8.55246 3.04917 8.20083C2.69754 7.84919 2.5 7.37228 2.5 6.875C2.5 6.37772 2.69754 5.90081 3.04917 5.54917C3.40081 5.19754 3.87772 5 4.375 5C4.74063 5.01537 5.09374 5.1376 5.39062 5.35156" stroke="#1E1E1E" stroke-width="2" stroke-linecap="round" stroke-linejoin="round"/>
<path d="M3.58827 5.17305C3.43506 5.02125 3.31493 4.83938 3.23545 4.63888C3.15597 4.43838 3.11886 4.2236 3.12646 4.00806C3.13405 3.79251 3.18619 3.58088 3.27958 3.38647C3.37298 3.19206 3.50561 3.0191 3.66913 2.87846C3.83264 2.73782 4.02351 2.63256 4.2297 2.5693C4.43589 2.50604 4.65294 2.48616 4.8672 2.51089C5.08145 2.53563 5.28826 2.60446 5.47461 2.71304C5.66096 2.82162 5.82282 2.9676 5.94999 3.1418C5.94999 3.1418 6.24999 3.55469 6.24999 3.75M5.69647 2.52773C6.37577 1.75352 7.32694 1.25 8.43749 1.25C10.4836 1.25 12.1094 2.92344 12.1094 4.96914C12.1095 5.20232 12.0877 5.43499 12.0441 5.66406" stroke="#1E1E1E" stroke-width="2" stroke-miterlimit="10" stroke-linecap="round"/>
</svg>
