<svg width="20" height="20" viewBox="0 0 20 20" fill="none" xmlns="http://www.w3.org/2000/svg">
    <path d="M10.0001 1.66669C8.90573 1.66669 7.8221 1.88224 6.81105 2.30102C5.80001 2.71981 4.88135 3.33364 4.10752 4.10746C2.54472 5.67027 1.66675 7.78988 1.66675 10C1.66675 12.2102 2.54472 14.3298 4.10752 15.8926C4.88135 16.6664 5.80001 17.2802 6.81105 17.699C7.8221 18.1178 8.90573 18.3334 10.0001 18.3334C12.2102 18.3334 14.3298 17.4554 15.8926 15.8926C17.4554 14.3298 18.3334 12.2102 18.3334 10C18.3334 8.90567 18.1179 7.82204 17.6991 6.81099C17.2803 5.79994 16.6665 4.88129 15.8926 4.10746C15.1188 3.33364 14.2002 2.71981 13.1891 2.30102C12.1781 1.88224 11.0944 1.66669 10.0001 1.66669ZM10.0001 3.33335C11.7682 3.33335 13.4639 4.03573 14.7141 5.28598C15.9644 6.53622 16.6667 8.23191 16.6667 10C16.6667 11.7681 15.9644 13.4638 14.7141 14.7141C13.4639 15.9643 11.7682 16.6667 10.0001 16.6667C8.23197 16.6667 6.53628 15.9643 5.28604 14.7141C4.03579 13.4638 3.33341 11.7681 3.33341 10C3.33341 8.23191 4.03579 6.53622 5.28604 5.28598C6.53628 4.03573 8.23197 3.33335 10.0001 3.33335ZM10.0001 5.00002C8.674 5.00002 7.40223 5.5268 6.46455 6.46449C5.52687 7.40217 5.00008 8.67394 5.00008 10C5.00008 11.3261 5.52687 12.5979 6.46455 13.5356C7.40223 14.4732 8.674 15 10.0001 15C11.3262 15 12.5979 14.4732 13.5356 13.5356C14.4733 12.5979 15.0001 11.3261 15.0001 10C15.0001 8.67394 14.4733 7.40217 13.5356 6.46449C12.5979 5.5268 11.3262 5.00002 10.0001 5.00002ZM10.0001 6.66669C10.8841 6.66669 11.732 7.01788 12.3571 7.643C12.9822 8.26812 13.3334 9.11596 13.3334 10C13.3334 10.8841 12.9822 11.7319 12.3571 12.357C11.732 12.9822 10.8841 13.3334 10.0001 13.3334C9.11603 13.3334 8.26818 12.9822 7.64306 12.357C7.01794 11.7319 6.66675 10.8841 6.66675 10C6.66675 9.11596 7.01794 8.26812 7.64306 7.643C8.26818 7.01788 9.11603 6.66669 10.0001 6.66669ZM10.0001 8.33335C9.55805 8.33335 9.13413 8.50895 8.82157 8.82151C8.50901 9.13407 8.33341 9.55799 8.33341 10C8.33341 10.442 8.50901 10.866 8.82157 11.1785C9.13413 11.4911 9.55805 11.6667 10.0001 11.6667C10.4421 11.6667 10.866 11.4911 11.1786 11.1785C11.4912 10.866 11.6667 10.442 11.6667 10C11.6667 9.55799 11.4912 9.13407 11.1786 8.82151C10.866 8.50895 10.4421 8.33335 10.0001 8.33335Z" fill="#1E1E1E"/>
</svg>
