<svg width="17" height="22" viewBox="0 0 17 22" fill="none" xmlns="http://www.w3.org/2000/svg">
<path d="M1 21V1.96827C1.00021 1.90099 1.01606 1.83494 1.04597 1.77673C1.07588 1.71852 1.11881 1.67018 1.17045 1.63654C1.50327 1.41635 2.40284 1 4.40909 1C7.13636 1 10.5881 3.30769 12.5909 3.30769C13.7217 3.30438 14.8405 3.04663 15.882 2.54952C15.8949 2.54342 15.909 2.54103 15.923 2.54256C15.937 2.54409 15.9504 2.5495 15.9621 2.5583C15.9738 2.5671 15.9834 2.57903 15.99 2.59301C15.9966 2.607 16 2.62261 16 2.63846V13.1846C15.9999 13.2218 15.9902 13.2583 15.9721 13.2894C15.9541 13.3206 15.9284 13.3451 15.8982 13.3601C15.547 13.5337 14.3095 14.0769 12.5909 14.0769C10.5455 14.0769 7.13636 12.5385 4.40909 12.5385C1.68182 12.5385 1 13.3077 1 13.3077" stroke="#1E1E1E" stroke-width="2" stroke-miterlimit="10" stroke-linecap="round"/>
</svg>
