<svg width="22" height="22" viewBox="0 0 22 22" fill="none" xmlns="http://www.w3.org/2000/svg">
<path d="M20.0062 6.52604C19.8475 6.45323 19.6785 6.41612 19.508 6.41667H19.4901C18.5897 6.43229 17.5799 7.41615 17.05 8.90417C16.4147 10.6844 16.7071 12.5057 17.708 12.974C17.8665 13.0468 18.0354 13.0839 18.2058 13.0833C19.1107 13.0833 20.1343 12.0938 20.6687 10.5958C21.2995 8.81563 21.0026 6.99427 20.0062 6.52604ZM14.1964 13.4729C12.9553 11.0703 12.4196 10.1667 10.9999 10.1667C9.5803 10.1667 9.04012 11.076 7.79904 13.4729C6.73654 15.5229 4.58921 15.6937 4.0535 17.4349C3.94482 17.7538 3.89023 18.0943 3.89278 18.4375C3.89278 19.8536 4.82136 21 5.96422 21C7.38386 21 9.3169 19.6776 11.0044 19.6776C12.6919 19.6776 14.616 21 16.0357 21C17.1785 21 18.1026 19.8542 18.1026 18.4375C18.1037 18.094 18.0476 17.7535 17.9375 17.4349C17.4017 15.6875 15.2589 15.5229 14.1964 13.4729ZM8.16556 7.875C8.22534 7.87506 8.28503 7.86983 8.34413 7.85938C9.3803 7.68385 10.0272 6.00885 9.79235 4.11719C9.57137 2.33385 8.64369 1 7.6736 1C7.61382 0.999944 7.55413 1.00517 7.49502 1.01563C6.45886 1.19115 5.81198 2.86615 6.04681 4.75781C6.26779 6.53594 7.19547 7.875 8.16556 7.875ZM15.9517 4.75781C16.1866 2.86615 15.5397 1.19115 14.5035 1.01563C14.4444 1.00517 14.3847 0.999944 14.325 1C13.3549 1 12.429 2.33385 12.2075 4.11719C11.9727 6.00885 12.6196 7.68385 13.6558 7.85938C13.7149 7.86983 13.7745 7.87506 13.8343 7.875C14.8044 7.875 15.7321 6.53594 15.9517 4.75781ZM4.29323 12.974C5.29279 12.5052 5.58475 10.6823 4.95037 8.90417C4.41644 7.40625 3.39367 6.41667 2.4901 6.41667C2.31975 6.41612 2.15084 6.45323 1.99233 6.52604C0.992775 6.99479 0.70081 8.81771 1.33519 10.5958C1.86912 12.0938 2.89189 13.0833 3.79546 13.0833C3.96582 13.0839 4.13472 13.0468 4.29323 12.974Z" stroke="#1E1E1E" stroke-width="2" stroke-miterlimit="10"/>
</svg>
