<svg width="50" height="50" viewBox="0 0 50 50" fill="none" xmlns="http://www.w3.org/2000/svg">
<path d="M17.1875 45.3125H3.90625C3.69905 45.3125 3.50034 45.2302 3.35382 45.0837C3.20731 44.9372 3.125 44.7385 3.125 44.5312V15.625C3.125 15.2106 3.28962 14.8132 3.58265 14.5201C3.87567 14.2271 4.2731 14.0625 4.6875 14.0625H15.625C16.0394 14.0625 16.4368 14.2271 16.7299 14.5201C17.0229 14.8132 17.1875 15.2106 17.1875 15.625V45.3125ZM17.1875 45.3125V6.25C17.1875 5.8356 17.3521 5.43817 17.6451 5.14515C17.9382 4.85212 18.3356 4.6875 18.75 4.6875H31.25C31.6644 4.6875 32.0618 4.85212 32.3549 5.14515C32.6479 5.43817 32.8125 5.8356 32.8125 6.25V45.3125M17.1875 45.3125H32.8125M32.8125 45.3125V21.875C32.8125 21.4606 32.9771 21.0632 33.2701 20.7701C33.5632 20.4771 33.9606 20.3125 34.375 20.3125H45.3125C45.7269 20.3125 46.1243 20.4771 46.4174 20.7701C46.7104 21.0632 46.875 21.4606 46.875 21.875V44.5312C46.875 44.7385 46.7927 44.9372 46.6462 45.0837C46.4997 45.2302 46.301 45.3125 46.0938 45.3125H32.8125Z" stroke="white" stroke-opacity="0.7" stroke-width="4" stroke-linecap="round" stroke-linejoin="round"/>
</svg>
